<?xml version="1.0" encoding="utf-8"?>
<!-- Generator: Adobe Illustrator 25.1.0, SVG Export Plug-In . SVG Version: 6.00 Build 0)  -->
<svg version="1.1" id="vector" xmlns="http://www.w3.org/2000/svg" xmlns:xlink="http://www.w3.org/1999/xlink" x="0px" y="0px"
	 viewBox="0 0 144 144" style="enable-background:new 0 0 144 144;" xml:space="preserve">
<style type="text/css">
	.st0{fill:#FFFFFF;}
	.st1{fill:none;stroke:#009688;stroke-width:4.2188;stroke-miterlimit:1.125;}
	.st2{fill:none;stroke:#009688;stroke-width:2.8125;stroke-miterlimit:1.125;}
	.st3{fill:#D3D3D3;}
	.st4{fill:#009688;}
</style>
<circle class="st0" cx="72" cy="72" r="48.1"/>
<path id="path_0" class="st1" d="M55.5,43.9h20.7c9.8,0,17.8,8,17.8,17.8s-8,17.8-17.8,17.8H55.5"/>
<path id="path_1" class="st2" d="M55.5,74h20.7c6.8,0,12.3-5.5,12.3-12.3S83,49.4,76.2,49.4H55.5"/>
<path id="path_2" class="st2" d="M55.5,74h20.7C86,74,94,82,94,91.8"/>
<path id="path_3" class="st1" d="M55.5,79.5h20.7c6.8,0,12.3,5.5,12.3,12.3"/>
<path id="path_4" class="st3" d="M57.3,44.1h-0.3l2.2-2.7l-2.8-3.5h-1.9l-2.8,3.5l2.2,2.7h-0.3c-1.1,0-1.9,0.8-1.9,1.9v34.8h7.5V46
	C59.3,44.9,58.4,44.1,57.3,44.1z"/>
<path id="path_5" class="st4" d="M51.8,46.5h7.5v0.8h-7.5V46.5z"/>
<path id="path_6" class="st4" d="M51.8,53h7.5v1.9h-7.5V53z"/>
<path id="path_7" class="st4" d="M92.5,63.7h-8l4-4L92.5,63.7z"/>
<path id="path_8" d="M58.9,80.8h-6.8c-1.3,0-2.3,1-2.3,2.3v31.4c3.6,1.9,7.4,3.3,11.5,4.2V83.2C61.3,81.9,60.2,80.8,58.9,80.8z"/>
</svg>
